# xmcd
#
# Track frame offsets:
#	150
#	23936
#	50119
#	69940
#	95411
#	113974
#
# Disc length: 1740 seconds
#
# Revision: 1
# Processed by: cddbd v1.5.2PL0 Copyright (c) Steve Scherf et al.
# Submitted via: audiograbber 1.83.01
#
DISCID=4d06ca06
DTITLE=Predestination - Be Blessed
DYEAR=2009
DGENRE=Gospel
TTITLE0=You Are Good
TTITLE1=Be Blessed
TTITLE2=The Battle Is The Lord's
TTITLE3=My Life Is In Your Hands
TTITLE4=Hallelujah Praise
TTITLE5=Silent Night
EXTD=
EXTT0=
EXTT1=
EXTT2=
EXTT3=
EXTT4=
EXTT5=
PLAYORDER=
